<?xml version="1.0" encoding="UTF-8"?>
<svg width="375px" height="300px" viewBox="0 0 375 300" version="1.1" xmlns="http://www.w3.org/2000/svg" xmlns:xlink="http://www.w3.org/1999/xlink">
    <title>hashi-container-5-5@1x</title>
    <g id="hashi-container-5-5" stroke="none" stroke-width="1" fill="none" fill-rule="evenodd">
        <g id="square" transform="translate(75.000000, 38.000000)" fill="#FFFFFF" stroke="#979797" stroke-opacity="0.5" stroke-width="4">
            <rect id="Rectangle" x="-2" y="-2" width="229" height="229" rx="5"></rect>
        </g>
        <g id="square" transform="translate(160.000000, 80.000000)" fill="#FFFFFF" stroke="#979797" stroke-opacity="0.5" stroke-width="4">
            <rect id="Rectangle" x="-2" y="-2" width="104" height="104" rx="5"></rect>
        </g>
        <g id="square" transform="translate(140.000000, 101.000000)" fill="#FFFFFF" stroke="#979797" stroke-opacity="0.5" stroke-width="4">
            <rect id="Rectangle" x="-2" y="-2" width="104" height="104" rx="5"></rect>
        </g>
        <g id="square" transform="translate(116.000000, 121.000000)" fill="#FFFFFF" stroke="#979797" stroke-opacity="0.5" stroke-width="4">
            <rect id="Rectangle" x="-2" y="-2" width="104" height="104" rx="5"></rect>
        </g>
        <g id="Database" transform="translate(136.000000, 141.000000)" fill="#000001">
            <path d="M60,11.25 C60,9 58.593,7.23 56.937,5.97 C55.254,4.68 52.956,3.6 50.316,2.76 C45.015,1.02 37.833,0 30,0 C22.167,0 14.985,1.02 9.684,2.76 C7.044,3.6 4.746,4.68 3.063,5.97 C1.407,7.23 0,9 0,11.25 L0,48.48 C0,50.73 1.362,52.53 3.018,53.85 C4.698,55.2 6.993,56.28 9.63,57.18 C14.928,58.95 22.119,60 30,60 C37.881,60 45.072,58.95 50.37,57.18 C53.007,56.28 55.302,55.2 56.982,53.85 C58.638,52.53 60,50.73 60,48.48 L60,11.25 Z M5.799,9.54 C4.644,10.41 4.5,11.01 4.5,11.25 C4.5,11.49 4.644,12.09 5.799,12.96 C6.921,13.83 8.688,14.7 11.073,15.48 C15.813,17.01 22.506,18 30,18 C37.494,18 44.187,17.01 48.927,15.48 C51.312,14.7 53.079,13.83 54.201,12.96 C55.356,12.09 55.5,11.49 55.5,11.25 C55.5,11.01 55.356,10.41 54.201,9.54 C53.079,8.67 51.312,7.8 48.927,7.02 C44.187,5.49 37.494,4.5 30,4.5 C22.506,4.5 15.813,5.49 11.073,7.02 C8.688,7.8 6.921,8.67 5.799,9.54 Z M55.5,17.49 C54.03,18.36 52.266,19.11 50.316,19.74 C45.015,21.48 37.833,22.5 30,22.5 C22.167,22.5 14.985,21.48 9.684,19.74 C7.734,19.11 5.97,18.36 4.5,17.49 L4.5,29.25 C4.5,29.49 4.647,30.09 5.793,30.99 C6.906,31.83 8.661,32.7 11.04,33.48 C15.768,35.01 22.458,36 30,36 C37.542,36 44.232,35.01 48.96,33.48 C51.339,32.7 53.094,31.83 54.207,30.99 C55.353,30.09 55.5,29.49 55.5,29.25 L55.5,17.49 Z M55.5,35.52 C54.039,36.39 52.29,37.14 50.352,37.77 C45.06,39.48 37.875,40.5 30,40.5 C22.125,40.5 14.94,39.48 9.648,37.77 C7.71,37.14 5.961,36.39 4.5,35.52 L4.5,48.48 C4.5,48.78 4.68,49.44 5.817,50.34 C6.93,51.21 8.685,52.11 11.058,52.92 C15.78,54.48 22.464,55.5 30,55.5 C37.536,55.5 44.22,54.48 48.942,52.92 C51.315,52.11 53.07,51.21 54.183,50.34 C55.32,49.44 55.5,48.78 55.5,48.48 L55.5,35.52 Z" id="Path_231"></path>
        </g>
        <g id="Lock" transform="translate(260.000000, 220.000000)">
            <g id="Path_429" fill="#FF0000">
                <path d="M10,15.25 C10.5175,15.25 10.9375,15.59 10.9375,16 L10.9375,18 C10.9375,18.41 10.5175,18.75 10,18.75 C9.4825,18.75 9.0625,18.41 9.0625,18 L9.0625,16 C9.0625,15.59 9.4825,15.25 10,15.25 Z" id="Path" fill-rule="nonzero"></path>
                <path d="M2.5,9.1 L2.5,5.75 C2.5,4.21 3.30125,2.75 4.7125,1.67 C6.1225,0.6 8.025,0 10,0 C11.975,0 13.8775,0.6 15.2875,1.67 C16.69875,2.75 17.5,4.21 17.5,5.75 L17.5,9.1 C18.9425,9.43 20,10.49 20,11.75 L20,19.25 C20,20.77 18.46125,22 16.5625,22 L3.4375,22 C1.53875,22 0,20.77 0,19.25 L0,11.75 C0,10.49 1.0575,9.43 2.5,9.1 Z M6.00625,2.76 C7.0575,1.96 8.49375,1.5 10,1.5 C11.50625,1.5 12.9425,1.96 13.99375,2.76 C15.04375,3.56 15.625,4.63 15.625,5.75 L15.625,9 L4.375,9 L4.375,5.75 C4.375,4.63 4.95625,3.56 6.00625,2.76 Z M16.5625,10.5 L3.4375,10.5 C2.575,10.5 1.875,11.06 1.875,11.75 L1.875,19.25 C1.875,19.94 2.575,20.5 3.4375,20.5 L16.5625,20.5 C17.425,20.5 18.125,19.94 18.125,19.25 L18.125,11.75 C18.125,11.06 17.425,10.5 16.5625,10.5 Z" id="Shape"></path>
            </g>
            <rect id="Rectangle" fill="#FFFFFF" x="15" y="6" width="3" height="3"></rect>
        </g>
    </g>
</svg>