<?xml version="1.0" encoding="UTF-8"?>
<svg width="400px" height="100px" viewBox="0 0 400 100" version="1.1" xmlns="http://www.w3.org/2000/svg" xmlns:xlink="http://www.w3.org/1999/xlink">
    <title>hashi-container-4-2-2@1x</title>
    <g id="hashi-container-4-2-2" stroke="none" stroke-width="1" fill="none" fill-rule="evenodd">
        <g id="arrow" transform="translate(20.500000, 10.000000)" fill="#000000" fill-rule="nonzero">
            <path id="Line" d="M18.5,-8.5 L18.5,-0.5 L361.5,-0.5 L361.5,2.5 L18.5,2.5 L18.5,10.5 L-0.5,1 L18.5,-8.5 Z"></path>
        </g>
        <g id="Path_297" transform="translate(124.000000, 40.000000)" fill="#000001">
            <path d="M9.76388889,22.5 C8.91288889,22.5 8.22222222,23.1954545 8.22222222,24.0340909 C8.22222222,24.8727273 8.91288889,25.5681818 9.76388889,25.5681818 L26.2083333,25.5681818 C27.0593333,25.5681818 27.75,24.8727273 27.75,24.0340909 C27.75,23.1954545 27.0593333,22.5 26.2083333,22.5 L9.76388889,22.5 Z" id="Path" fill-rule="nonzero"></path>
            <path d="M8.22222222,32.2159091 C8.22222222,31.3772727 8.91288889,30.6818182 9.76388889,30.6818182 L22.0972222,30.6818182 C22.9482222,30.6818182 23.6388889,31.3772727 23.6388889,32.2159091 C23.6388889,33.0545455 22.9482222,33.75 22.0972222,33.75 L9.76388889,33.75 C8.91288889,33.75 8.22222222,33.0545455 8.22222222,32.2159091 Z" id="Path" fill-rule="nonzero"></path>
            <path d="M9.76388889,14.3181818 C8.91288889,14.3181818 8.22222222,15.0136364 8.22222222,15.8522727 C8.22222222,16.6909091 8.91288889,17.3863636 9.76388889,17.3863636 L13.875,17.3863636 C14.726,17.3863636 15.4166667,16.6909091 15.4166667,15.8522727 C15.4166667,15.0136364 14.726,14.3181818 13.875,14.3181818 L9.76388889,14.3181818 Z" id="Path" fill-rule="nonzero"></path>
            <path d="M0,5.625 C0,2.51590909 2.53038889,0 5.65277778,0 L21.2462222,0 C22.2,0 23.1147222,0.368181818 23.7889444,1.04318182 L35.9455,13.1522727 C36.6217778,13.8068182 37,14.7272727 37,15.6681818 L37,39.375 C37,42.4840909 34.4696111,45 31.3472222,45 L5.65277778,45 C2.53038889,45 0,42.4840909 0,39.375 L0,5.625 Z M5.65277778,3.06818182 C4.23444444,3.06818182 3.08333333,4.21363636 3.08333333,5.625 L3.08333333,39.375 C3.08333333,40.7863636 4.23444444,41.9318182 5.65277778,41.9318182 L31.3472222,41.9318182 C32.7655556,41.9318182 33.9166667,40.7863636 33.9166667,39.375 L33.9166667,16.3636364 L22.0972222,16.3636364 C21.2462222,16.3636364 20.5555556,15.6681818 20.5555556,14.8295455 L20.5555556,3.06818182 L5.65277778,3.06818182 Z M23.6388889,5.23636364 L31.7357222,13.2954545 L23.6388889,13.2954545 L23.6388889,5.23636364 Z" id="Shape"></path>
        </g>
        <g id="Path_297" transform="translate(182.000000, 40.000000)" fill="#000001">
            <path d="M9.76388889,22.5 C8.91288889,22.5 8.22222222,23.1954545 8.22222222,24.0340909 C8.22222222,24.8727273 8.91288889,25.5681818 9.76388889,25.5681818 L26.2083333,25.5681818 C27.0593333,25.5681818 27.75,24.8727273 27.75,24.0340909 C27.75,23.1954545 27.0593333,22.5 26.2083333,22.5 L9.76388889,22.5 Z" id="Path" fill-rule="nonzero"></path>
            <path d="M8.22222222,32.2159091 C8.22222222,31.3772727 8.91288889,30.6818182 9.76388889,30.6818182 L22.0972222,30.6818182 C22.9482222,30.6818182 23.6388889,31.3772727 23.6388889,32.2159091 C23.6388889,33.0545455 22.9482222,33.75 22.0972222,33.75 L9.76388889,33.75 C8.91288889,33.75 8.22222222,33.0545455 8.22222222,32.2159091 Z" id="Path" fill-rule="nonzero"></path>
            <path d="M9.76388889,14.3181818 C8.91288889,14.3181818 8.22222222,15.0136364 8.22222222,15.8522727 C8.22222222,16.6909091 8.91288889,17.3863636 9.76388889,17.3863636 L13.875,17.3863636 C14.726,17.3863636 15.4166667,16.6909091 15.4166667,15.8522727 C15.4166667,15.0136364 14.726,14.3181818 13.875,14.3181818 L9.76388889,14.3181818 Z" id="Path" fill-rule="nonzero"></path>
            <path d="M0,5.625 C0,2.51590909 2.53038889,0 5.65277778,0 L21.2462222,0 C22.2,0 23.1147222,0.368181818 23.7889444,1.04318182 L35.9455,13.1522727 C36.6217778,13.8068182 37,14.7272727 37,15.6681818 L37,39.375 C37,42.4840909 34.4696111,45 31.3472222,45 L5.65277778,45 C2.53038889,45 0,42.4840909 0,39.375 L0,5.625 Z M5.65277778,3.06818182 C4.23444444,3.06818182 3.08333333,4.21363636 3.08333333,5.625 L3.08333333,39.375 C3.08333333,40.7863636 4.23444444,41.9318182 5.65277778,41.9318182 L31.3472222,41.9318182 C32.7655556,41.9318182 33.9166667,40.7863636 33.9166667,39.375 L33.9166667,16.3636364 L22.0972222,16.3636364 C21.2462222,16.3636364 20.5555556,15.6681818 20.5555556,14.8295455 L20.5555556,3.06818182 L5.65277778,3.06818182 Z M23.6388889,5.23636364 L31.7357222,13.2954545 L23.6388889,13.2954545 L23.6388889,5.23636364 Z" id="Shape"></path>
        </g>
        <g id="Path_297" transform="translate(238.000000, 40.000000)" fill="#000001">
            <path d="M9.76388889,22.5 C8.91288889,22.5 8.22222222,23.1954545 8.22222222,24.0340909 C8.22222222,24.8727273 8.91288889,25.5681818 9.76388889,25.5681818 L26.2083333,25.5681818 C27.0593333,25.5681818 27.75,24.8727273 27.75,24.0340909 C27.75,23.1954545 27.0593333,22.5 26.2083333,22.5 L9.76388889,22.5 Z" id="Path" fill-rule="nonzero"></path>
            <path d="M8.22222222,32.2159091 C8.22222222,31.3772727 8.91288889,30.6818182 9.76388889,30.6818182 L22.0972222,30.6818182 C22.9482222,30.6818182 23.6388889,31.3772727 23.6388889,32.2159091 C23.6388889,33.0545455 22.9482222,33.75 22.0972222,33.75 L9.76388889,33.75 C8.91288889,33.75 8.22222222,33.0545455 8.22222222,32.2159091 Z" id="Path" fill-rule="nonzero"></path>
            <path d="M9.76388889,14.3181818 C8.91288889,14.3181818 8.22222222,15.0136364 8.22222222,15.8522727 C8.22222222,16.6909091 8.91288889,17.3863636 9.76388889,17.3863636 L13.875,17.3863636 C14.726,17.3863636 15.4166667,16.6909091 15.4166667,15.8522727 C15.4166667,15.0136364 14.726,14.3181818 13.875,14.3181818 L9.76388889,14.3181818 Z" id="Path" fill-rule="nonzero"></path>
            <path d="M0,5.625 C0,2.51590909 2.53038889,0 5.65277778,0 L21.2462222,0 C22.2,0 23.1147222,0.368181818 23.7889444,1.04318182 L35.9455,13.1522727 C36.6217778,13.8068182 37,14.7272727 37,15.6681818 L37,39.375 C37,42.4840909 34.4696111,45 31.3472222,45 L5.65277778,45 C2.53038889,45 0,42.4840909 0,39.375 L0,5.625 Z M5.65277778,3.06818182 C4.23444444,3.06818182 3.08333333,4.21363636 3.08333333,5.625 L3.08333333,39.375 C3.08333333,40.7863636 4.23444444,41.9318182 5.65277778,41.9318182 L31.3472222,41.9318182 C32.7655556,41.9318182 33.9166667,40.7863636 33.9166667,39.375 L33.9166667,16.3636364 L22.0972222,16.3636364 C21.2462222,16.3636364 20.5555556,15.6681818 20.5555556,14.8295455 L20.5555556,3.06818182 L5.65277778,3.06818182 Z M23.6388889,5.23636364 L31.7357222,13.2954545 L23.6388889,13.2954545 L23.6388889,5.23636364 Z" id="Shape"></path>
        </g>
    </g>
</svg>