<?xml version="1.0" encoding="UTF-8"?>
<svg width="400px" height="100px" viewBox="0 0 400 100" version="1.1" xmlns="http://www.w3.org/2000/svg" xmlns:xlink="http://www.w3.org/1999/xlink">
    <g id="hashi-container-4-2-1" stroke="none" stroke-width="1" fill="none" fill-rule="evenodd">
        <g id="arrow" transform="translate(202.500000, 89.000000) scale(-1, 1) translate(-202.500000, -89.000000) translate(22.500000, 88.000000)" fill="#000000" fill-rule="nonzero">
            <path id="Line" d="M18.5,-8.5 L18.5,-0.5 L361.5,-0.5 L361.5,2.5 L18.5,2.5 L18.5,10.5 L-0.5,1 L18.5,-8.5 Z"></path>
        </g>
        <g id="Path_699" transform="translate(168.000000, 11.000000)">
            <rect id="Rectangle" fill="#222222" fill-rule="nonzero" x="0" y="0" width="65" height="59" rx="7.5"></rect>
            <path d="M15.2868182,15.5465 C16.0697727,14.6025 17.4672727,14.4845 18.4068182,15.2515 L31.7022727,26.314 C32.2075,26.7565 32.5,27.376 32.5,28.025 C32.5,28.674 32.2075,29.2935 31.7022727,29.736 L18.4068182,40.7985 C17.4672727,41.5655 16.0697727,41.4475 15.2868182,40.5035 C14.5038636,39.5595 14.6309091,38.173 15.5704545,37.3765 L26.8213636,28.025 L15.5704545,18.6735 C14.6309091,17.877 14.5038636,16.4905 15.2868182,15.5465 Z" id="Path" fill="#FFFFFF" fill-rule="nonzero"></path>
            <path d="M31.7613636,41.3 C30.5381818,41.3 29.5454545,42.303 29.5454545,43.5125 C29.5454545,44.722 30.5381818,45.725 31.7613636,45.725 L48.0113636,45.725 C49.2345455,45.725 50.2272727,44.722 50.2272727,43.5125 C50.2272727,42.303 49.2345455,41.3 48.0113636,41.3 L31.7613636,41.3 Z" id="Path" fill="#FFFFFF" fill-rule="nonzero"></path>
            <path d="M0,8.1125 C0,3.6285 3.63704545,0 8.125,0 L56.875,0 C61.3629545,0 65,3.6285 65,8.1125 L65,50.8875 C65,55.3715 61.3629545,59 56.875,59 L8.125,59 C3.63704545,59 0,55.3715 0,50.8875 L0,8.1125 Z M8.125,4.425 C6.08636364,4.425 4.43181818,6.077 4.43181818,8.1125 L4.43181818,50.8875 C4.43181818,52.923 6.08636364,54.575 8.125,54.575 L56.875,54.575 C58.9136364,54.575 60.5681818,52.923 60.5681818,50.8875 L60.5681818,8.1125 C60.5681818,6.077 58.9136364,4.425 56.875,4.425 L8.125,4.425 Z" id="Shape" fill="#222222"></path>
        </g>
    </g>
</svg>