<?xml version="1.0" encoding="UTF-8"?>
<svg width="825px" height="375px" viewBox="0 0 825 375" version="1.1" xmlns="http://www.w3.org/2000/svg" xmlns:xlink="http://www.w3.org/1999/xlink">
    <title>page_08_hashi-container-11-5</title>
    <defs>
        <linearGradient x1="0%" y1="50%" x2="100%" y2="50%" id="linearGradient-1">
            <stop stop-color="#005BA1" offset="0%"></stop>
            <stop stop-color="#0060A9" offset="7%"></stop>
            <stop stop-color="#0071C8" offset="36%"></stop>
            <stop stop-color="#0078D4" offset="52%"></stop>
            <stop stop-color="#0074CD" offset="64%"></stop>
            <stop stop-color="#006ABB" offset="82%"></stop>
            <stop stop-color="#005BA1" offset="100%"></stop>
        </linearGradient>
        <radialGradient cx="50.3435013%" cy="50.1177378%" fx="50.3435013%" fy="50.1177378%" r="135.121683%" gradientTransform="translate(0.503435,0.501177),scale(0.509448,1.000000),translate(-0.503435,-0.501177)" id="radialGradient-2">
            <stop stop-color="#F2F2F2" offset="0%"></stop>
            <stop stop-color="#EEEEEE" offset="58%"></stop>
            <stop stop-color="#E6E6E6" offset="100%"></stop>
        </radialGradient>
        <text id="text-3" font-family="Helvetica-Bold, Helvetica" font-size="9" font-weight="bold" letter-spacing="0.09" fill="#222222">
            <tspan x="166.999629" y="279">Unencrypted </tspan>
            <tspan x="185.364023" y="290">DEK</tspan>
        </text>
        <filter x="-0.6%" y="-1.2%" width="101.2%" height="102.5%" filterUnits="objectBoundingBox" id="filter-4">
            <feOffset dx="0.25" dy="0.25" in="SourceAlpha" result="shadowOffsetOuter1"></feOffset>
            <feColorMatrix values="0 0 0 0 1   0 0 0 0 1   0 0 0 0 1  0 0 0 1 0" type="matrix" in="shadowOffsetOuter1" result="shadowMatrixOuter1"></feColorMatrix>
            <feOffset dx="-0.25" dy="-0.25" in="SourceAlpha" result="shadowOffsetOuter2"></feOffset>
            <feColorMatrix values="0 0 0 0 1   0 0 0 0 1   0 0 0 0 1  0 0 0 1 0" type="matrix" in="shadowOffsetOuter2" result="shadowMatrixOuter2"></feColorMatrix>
            <feMerge>
                <feMergeNode in="shadowMatrixOuter1"></feMergeNode>
                <feMergeNode in="shadowMatrixOuter2"></feMergeNode>
            </feMerge>
        </filter>
    </defs>
    <g id="page_08_hashi-container-11-5" stroke="none" stroke-width="1" fill="none" fill-rule="evenodd">
        <rect id="Rectangle" stroke="#1E90FF" fill-opacity="0.5" fill="#87CEEB" x="72.5" y="232.5" width="245" height="74" rx="5"></rect>
        <g id="Memory" transform="translate(149.000000, 224.000000)">
            <rect id="Rectangle" fill="#FFFFFF" x="0" y="0" width="92" height="91" rx="5"></rect>
            <g id="checkered" transform="translate(1.000000, 0.000000)" fill="#87CEEB">
                <path d="M5,0 L14,0 C14.5522847,-1.01453063e-16 15,0.44771525 15,1 L15,14 C15,14.5522847 14.5522847,15 14,15 L1,15 C0.44771525,15 -1.5440923e-16,14.5522847 0,14 L0,5 C-3.38176876e-16,2.23857625 2.23857625,5.07265313e-16 5,0 Z" id="Rectangle"></path>
                <rect id="Rectangle" x="30" y="0" width="15" height="15" rx="1"></rect>
                <rect id="Rectangle" x="60" y="0" width="15" height="15" rx="1"></rect>
                <rect id="Rectangle" x="15" y="15" width="15" height="15" rx="1"></rect>
                <rect id="Rectangle" x="45" y="15" width="15" height="15" rx="1"></rect>
                <rect id="Rectangle" x="75" y="15" width="15" height="15" rx="1"></rect>
                <rect id="Rectangle-Copy-3" x="15" y="75" width="15" height="15" rx="1"></rect>
                <rect id="Rectangle-Copy-2" x="45" y="75" width="15" height="15" rx="1"></rect>
                <path d="M76,75 L89,75 C89.5522847,75 90,75.4477153 90,76 L90,85 C90,87.7614237 87.7614237,90 85,90 L76,90 C75.4477153,90 75,89.5522847 75,89 L75,76 C75,75.4477153 75.4477153,75 76,75 Z" id="Rectangle-Copy"></path>
                <rect id="Rectangle" x="0" y="30" width="15" height="15" rx="1"></rect>
                <rect id="Rectangle" x="30" y="30" width="15" height="15" rx="1"></rect>
                <rect id="Rectangle" x="60" y="30" width="15" height="15" rx="1"></rect>
                <rect id="Rectangle" x="15" y="45" width="15" height="15" rx="1"></rect>
                <rect id="Rectangle" x="45" y="45" width="15" height="15" rx="1"></rect>
                <rect id="Rectangle" x="75" y="45" width="15" height="15" rx="1"></rect>
                <rect id="Rectangle" x="0" y="60" width="15" height="15" rx="1"></rect>
                <rect id="Rectangle" x="30" y="60" width="15" height="15" rx="1"></rect>
                <rect id="Rectangle" x="60" y="60" width="15" height="15" rx="1"></rect>
            </g>
            <rect id="Rectangle" stroke="#1E90FF" fill-opacity="0.5" fill="#87CEEB" x="0.5" y="0.5" width="91" height="90" rx="5"></rect>
        </g>
        <rect id="Rectangle" stroke="#DBDBDC" stroke-width="4" fill="#FFFFFF" x="647" y="54" width="139" height="113" rx="5"></rect>
        <g id="Group-4" transform="translate(664.000000, 37.000000)">
            <rect id="Rectangle" fill="#FFFFFF" x="0" y="0" width="45" height="38"></rect>
            <g id="Logo-Group_13" transform="translate(4.000000, 2.000000)" fill="#000001" fill-rule="nonzero">
                <path d="M0,0 L18.495097,36 L37.1238399,0 L0,0 Z M15.6188432,14.2909909 L12.6722227,14.2909909 L12.6722227,11.344708 L15.6188432,11.344708 L15.6188432,14.2909909 Z M15.6188432,9.86987907 L12.6722227,9.86987907 L12.6722227,6.92697103 L15.6188432,6.92697103 L15.6188432,9.86987907 Z M20.0369176,18.7087279 L17.0902972,18.7087279 L17.0902972,15.7624449 L20.0369176,15.7624449 L20.0369176,18.7087279 Z M20.0369176,14.2909909 L17.0902972,14.2909909 L17.0902972,11.344708 L20.0369176,11.344708 L20.0369176,14.2909909 Z M20.0369176,9.86987907 L17.0902972,9.86987907 L17.0902972,6.92697103 L20.0369176,6.92697103 L20.0369176,9.86987907 Z M24.4315365,14.2909909 L21.4850848,14.2909909 L21.4850848,11.344708 L24.4315365,11.344708 L24.4315365,14.2909909 Z M21.4850848,9.86987907 L21.4850848,6.92697103 L24.4315365,6.92697103 L24.4315365,9.86987907 L21.4850848,9.86987907 Z" id="Vector_48"></path>
            </g>
        </g>
        <path d="M629.000876,55.3084809 C629.829088,55.308118 630.578945,55.6435776 631.121794,56.1861725 C631.664772,56.7288972 632.00065,57.4788333 632.000779,58.3069087 L632.000779,58.3069087 L632,175 C632,176.932997 632.783502,178.682997 634.050253,179.949747 C635.317003,181.216498 637.067003,182 639,182 L639,182 L779,182 C779.828427,182 780.578427,182.335786 781.12132,182.87868 C781.664214,183.421573 782,184.171573 782,185 L782,185 L782,333.4 C782,334.228427 781.664214,334.978427 781.12132,335.52132 C780.578427,336.064214 779.828427,336.4 779,336.4 L779,336.4 L47,336.4 C46.1715729,336.4 45.4215729,336.064214 44.8786797,335.52132 C44.3357864,334.978427 44,334.228427 44,333.4 L44,333.4 L43.9999999,58.4005647 C44.0002339,57.5719869 44.3361844,56.8218443 44.8791964,56.2787476 C45.4222085,55.7356508 46.1722987,55.3995834 47.0003118,55.3992204 L47.0003118,55.3992204 Z" id="Rectangle" stroke="#A6DAF0" stroke-width="4"></path>
        <g id="Group-3" transform="translate(72.000000, 37.000000)">
            <rect id="Rectangle" fill="#FFFFFF" x="0" y="0" width="53" height="38"></rect>
            <g id="microsoft-windows-22-logo-svgrepo-com" transform="translate(11.000000, 1.000000)" fill="#00ADEF" fill-rule="nonzero">
                <path d="M0,4.53062607 L13.037217,2.75523675 L13.0428247,15.3306307 L0.0118384211,15.4047766 L0,4.53075069 L0,4.53062607 Z M13.0309863,16.7794043 L13.0409555,29.3657644 L0.0100938117,27.5741751 L0.00934612194,16.6950399 L13.0308617,16.7794043 L13.0309863,16.7794043 Z M14.6113532,2.52282985 L31.8974419,0 L31.8974419,15.1706251 L14.6113532,15.3077016 L14.6113532,2.52295446 L14.6113532,2.52282985 Z M31.9014296,16.8977885 L31.8973173,32 L14.6112286,29.5602883 L14.5870533,16.8695009 L31.9014296,16.8977885 Z" id="Shape"></path>
            </g>
        </g>
        <text id="Windows-DLL" font-family="HelveticaNeue-Bold, Helvetica Neue" font-size="8" font-weight="bold" letter-spacing="0.08" fill="#222222">
            <tspan x="167.536" y="189">Windows DLL</tspan>
        </text>
        <rect id="Rectangle" stroke="#1E90FF" fill-opacity="0.5" fill="#87CEEB" x="72.5" y="97.5" width="149" height="74" rx="5"></rect>
        <text id="Database-Engine" font-family="Helvetica-Bold, Helvetica" font-size="9" font-weight="bold" letter-spacing="0.09" fill="#222222">
            <tspan x="91.129502" y="289">Database</tspan>
            <tspan x="96.2292676" y="300">Engine</tspan>
        </text>
        <text id="EncryptedDEK" font-family="Helvetica-Bold, Helvetica" font-size="9" font-weight="bold" letter-spacing="0.09" fill="#222222">
            <tspan x="258.089385" y="289">Encrypted</tspan>
            <tspan x="270.864023" y="300">DEK</tspan>
        </text>
        <text id="System-Memory" font-family="Helvetica-Bold, Helvetica" font-size="9" font-weight="bold" letter-spacing="0.09" fill="#222222">
            <tspan x="159.900352" y="324">System Memory</tspan>
        </text>
        <g id="10130-icon-service-SQL-Database" transform="translate(100.000000, 245.000000)" fill-rule="nonzero">
            <path d="M11.3117647,8.18823529 C5.06470588,8.18823529 0,6.42352941 0,4.09411765 L0,25.9058824 C0,28.1470588 4.97647059,29.9647059 11.1529412,30 L11.3117647,30 C17.5588235,30 22.6235294,28.2352941 22.6235294,25.9058824 L22.6235294,4.09411765 C22.6235294,6.37058824 17.5588235,8.18823529 11.3117647,8.18823529 Z" id="Path" fill="url(#linearGradient-1)"></path>
            <path d="M22.6235294,4.09411765 C22.6235294,6.37058824 17.5588235,8.18823529 11.3117647,8.18823529 C5.06470588,8.18823529 0,6.42352941 0,4.09411765 C0,1.76470588 5.06470588,0 11.3117647,0 C17.5588235,0 22.6235294,1.76470588 22.6235294,4.09411765" id="Path" fill="#E8E8E8"></path>
            <path d="M19.9941176,3.75882353 C19.9941176,5.20588235 16.0941176,6.37058824 11.3117647,6.37058824 C6.52941176,6.37058824 2.62941176,5.20588235 2.62941176,3.75882353 C2.62941176,2.31176471 6.52941176,1.16470588 11.3117647,1.16470588 C16.0941176,1.16470588 19.9941176,2.32941176 19.9941176,3.75882353" id="Path" fill="#50E6FF"></path>
            <path d="M11.3117647,4.41176471 C8.98285935,4.35228338 6.6609937,4.69250534 4.44705882,5.41764706 C6.66309701,6.12932136 8.9856691,6.45173497 11.3117647,6.37058824 C13.6425714,6.43886605 15.9669597,6.09229916 18.1764706,5.34705882 C15.9562273,4.65545342 13.6361041,4.3393441 11.3117647,4.41176471 Z" id="Path" fill="#198AB3"></path>
            <path d="M18.1941176,19.2352941 L18.1941176,13.2352941 L16.6058824,13.2352941 L16.6058824,20.5235294 L20.9470588,20.5235294 L20.9470588,19.2352941 L18.1941176,19.2352941 Z M5.59411765,16.2882353 C5.26620284,16.1563607 4.96216029,15.9715505 4.69411765,15.7411765 C4.55032288,15.5891644 4.47396756,15.3855502 4.48235294,15.1764706 C4.47134758,14.9657289 4.57186224,14.7646996 4.74705882,14.6470588 C4.96410611,14.4968815 5.22461088,14.4224515 5.48823529,14.4352941 C6.11675834,14.4070505 6.73704506,14.5869337 7.25294118,14.9470588 L7.25294118,13.4294118 C6.68913553,13.2196356 6.08934742,13.1236695 5.48823529,13.1470588 C4.79588828,13.1101977 4.11331425,13.3231107 3.56470588,13.7470588 C3.079616,14.1210672 2.80384824,14.7054322 2.82352941,15.3176471 C2.82352941,16.2176471 3.38823529,16.9235294 4.58823529,17.4529412 C4.97797848,17.6183077 5.34553155,17.8317256 5.68235294,18.0882353 C5.84934429,18.2283804 5.94616754,18.4349367 5.94705882,18.6529412 C5.94715108,18.8702745 5.8419119,19.0741754 5.66470588,19.2 C5.42454218,19.3406345 5.14854717,19.4081 4.87058824,19.3941176 C4.16079075,19.3882621 3.47726288,19.1248844 2.94705882,18.6529412 L2.94705882,20.2941176 C3.52983157,20.5946217 4.18000288,20.7404546 4.83529412,20.7176471 C5.57496798,20.7615157 6.30803771,20.5565047 6.91764706,20.1352941 C7.35421526,19.7218325 7.57006915,19.126599 7.5,18.5294118 C7.50848166,18.0776279 7.3515842,17.638315 7.05882353,17.2941176 C6.64651159,16.8598398 6.14747652,16.517129 5.59411765,16.2882353 L5.59411765,16.2882353 Z M14.8411765,19.0941176 C15.2418171,18.4229918 15.4437587,17.6519419 15.4235294,16.8705882 C15.3836584,16.2091179 15.1838195,15.5672111 14.8411765,15 C14.5656762,14.4489196 14.1366763,13.9892769 13.6058824,13.6764706 C13.0679897,13.3715984 12.4594461,13.2133771 11.8411765,13.2176471 C11.174684,13.2029941 10.5164802,13.3675451 9.93529412,13.6941176 C9.3905036,13.9981381 8.94363937,14.4511238 8.64705882,15 C8.33465411,15.6239663 8.17726734,16.3140467 8.18823529,17.0117647 C8.19192135,17.6247312 8.33684964,18.2285991 8.61176471,18.7764706 C8.8810813,19.3215625 9.30446136,19.7756223 9.82941176,20.0823529 C10.3624273,20.4074309 10.970181,20.589757 11.5941176,20.6117647 L13.1117647,22.3764706 L15.2470588,22.3764706 L13.0764706,20.4352941 C13.8073933,20.2160649 14.4342481,19.7396553 14.8411765,19.0941176 Z M13.0764706,18.6529412 C12.7507411,19.0574121 12.2543885,19.2859955 11.7352941,19.2705882 C11.2119454,19.2874926 10.7125709,19.0509468 10.3941176,18.6352941 C10.0210955,18.125651 9.83986798,17.5007284 9.88235294,16.8705882 C9.84138605,16.2406128 10.0224662,15.6161985 10.3941176,15.1058824 C10.7305236,14.6911915 11.2366087,14.4511255 11.7705882,14.4529412 C12.2943028,14.4303675 12.7933391,14.6765588 13.0941176,15.1058824 C13.4417842,15.6261235 13.6091673,16.2460608 13.5705882,16.8705882 C13.6321598,17.5053848 13.4561,18.1404578 13.0764706,18.6529412 L13.0764706,18.6529412 Z" id="Shape" fill="url(#radialGradient-2)"></path>
        </g>
        <g id="Group-2" transform="translate(117.000000, 110.000000)">
            <text id="Vault-EKM-Provider" font-family="Helvetica-Bold, Helvetica" font-size="9" font-weight="bold" letter-spacing="0.09" fill="#222222">
                <tspan x="7.58938477" y="43">Vault EKM </tspan>
                <tspan x="11.3829199" y="54">Provider</tspan>
            </text>
            <g id="Logo-Group_13" transform="translate(15.600000, 0.000000)" fill="#000001" fill-rule="nonzero">
                <path d="M0,0 L15.4125809,30 L30.9365332,0 L0,0 Z M13.0157026,11.9091591 L10.5601856,11.9091591 L10.5601856,9.45392331 L13.0157026,9.45392331 L13.0157026,11.9091591 Z M13.0157026,8.22489922 L10.5601856,8.22489922 L10.5601856,5.77247586 L13.0157026,5.77247586 L13.0157026,8.22489922 Z M16.6974313,15.5906065 L14.2419143,15.5906065 L14.2419143,13.1353708 L16.6974313,13.1353708 L16.6974313,15.5906065 Z M16.6974313,11.9091591 L14.2419143,11.9091591 L14.2419143,9.45392331 L16.6974313,9.45392331 L16.6974313,11.9091591 Z M16.6974313,8.22489922 L14.2419143,8.22489922 L14.2419143,5.77247586 L16.6974313,5.77247586 L16.6974313,8.22489922 Z M20.3596138,11.9091591 L17.9042374,11.9091591 L17.9042374,9.45392331 L20.3596138,9.45392331 L20.3596138,11.9091591 Z M17.9042374,8.22489922 L17.9042374,5.77247586 L20.3596138,5.77247586 L20.3596138,8.22489922 L17.9042374,8.22489922 Z" id="Vector_48"></path>
            </g>
        </g>
        <text id="Authenticate-with-RO" font-family="HelveticaNeue-Bold, Helvetica Neue" font-size="8" font-weight="bold" letter-spacing="0.08" fill="#222222">
            <tspan x="337.564" y="113">Authenticate with ROLE ID and ROLE SECRET</tspan>
        </text>
        <text id="Encrypt-DEK" font-family="HelveticaNeue-Bold, Helvetica Neue" font-size="8" font-weight="bold" letter-spacing="0.08" fill="#222222">
            <tspan x="305.26" y="135">Encrypt DEK</tspan>
        </text>
        <text id="Decrypt-DEK" font-family="HelveticaNeue-Bold, Helvetica Neue" font-size="8" font-weight="bold" letter-spacing="0.08" fill="#222222">
            <tspan x="484.964" y="135">Decrypt DEK</tspan>
        </text>
        <path id="Line-3" d="M662,116 L671,120.5 L662,125 L661.999,121 L228.137646,121 L228.137646,120 L661.999,120 L662,116 Z" fill="#979797" fill-rule="nonzero"></path>
        <g id="Union_344" transform="translate(269.000000, 249.000000)" fill="#000001">
            <path d="M12.88,4.88 C13.448,4.31 14.202,4 15.001,4 C15.398,4 15.785,4.08 16.149,4.23 C17.269,4.7 17.999998,5.78 17.999998,7 C17.999998,7.79 17.679,8.56 17.125,9.12 C16.56,9.69 15.802,10 15.001,10 C13.782,10 12.697,9.27 12.23,8.15 L12.229,8.15 C11.766,7.02 12.016,5.74 12.88,4.88 Z M13.941,5.94 C14.225,5.65 14.597,5.5 15.001,5.5 C15.197,5.5 15.389,5.54 15.572,5.61 C16.137,5.85 16.5,6.39 16.5,7 C16.5,7.39 16.339,7.78 16.06,8.06 C15.779,8.34 15.405,8.5 15.001,8.5 C14.393,8.5 13.851,8.14 13.615,7.57 C13.382,7.01 13.509,6.37 13.939,5.94 L13.941,5.94 Z" id="Shape"></path>
            <path d="M13.307,0.07 C13.647,0.02 13.991,0 14.328,0 C16.377,0 18.308,0.8 19.757,2.25 C21.436,3.93 22.248,6.34 21.933,8.69 L21.933,8.69 C21.614,11.05 20.196,13.16 18.133,14.33 C16.973,15 15.657,15.35 14.322,15.35 C13.446,15.35 12.589,15.2 11.769,14.91 L10.729,15.95 C10.504,16.19 10.19,16.32 9.866,16.32 L8.601,16.32 L8.601,17.39 L8.601,17.41 C8.593,17.76 8.455,18.08 8.218,18.33 L8.211,18.34 C7.952,18.61 7.597,18.75 7.24,18.75 L6.156,18.75 L6.156,19.97 C6.167,20.29 6.046,20.6 5.825,20.84 C5.821,20.84 5.817,20.84 5.814,20.85 C5.812,20.85 5.809,20.85 5.807,20.85 L4.881,21.78 C4.74,21.92 4.549,22 4.35,22 L0.75,22 C0.336,22 0,21.66 0,21.25 L0,17.63 C0,17.44 0.079,17.24 0.22,17.1 L7.089,10.24 C6.353,8.15 6.555,5.8 7.661,3.87 C8.843,1.8 10.951,0.38 13.307,0.07 Z M13.51,1.55 C13.777,1.52 14.052,1.5 14.328,1.5 C15.979,1.5 17.529,2.14 18.696,3.31 C20.045,4.66 20.7,6.6 20.446,8.49 C20.19,10.39 19.045,12.09 17.389,13.03 C16.455,13.56 15.395,13.85 14.322,13.85 C13.496,13.85 12.69,13.68 11.925,13.36 C11.823,13.32 11.713,13.3 11.603,13.3 C11.351,13.3 11.156,13.4 11.021,13.54 L9.739,14.82 L8.135,14.82 C7.557,14.82 7.101,15.29 7.101,15.85 L7.101,17.25 L5.69,17.25 C5.113,17.25 4.656,17.72 4.656,18.28 L4.656,19.88 L4.04,20.5 L1.5,20.5 L1.5,17.94 L8.455,10.99 C8.682,10.76 8.776,10.41 8.634,10.08 C7.893,8.31 8.015,6.27 8.963,4.61 C9.913,2.95 11.614,1.81 13.507,1.55 L13.51,1.55 Z" id="Shape"></path>
        </g>
        <g id="Unencrypted-DEK" fill-rule="nonzero" fill="#222222" fill-opacity="1">
            <use filter="url(#filter-4)" xlink:href="#text-3"></use>
            <use xlink:href="#text-3"></use>
        </g>
        <g id="Union_344" transform="translate(184.000000, 245.000000)" fill="#000001">
            <path d="M12.88,4.88 C13.448,4.31 14.202,4 15.001,4 C15.398,4 15.785,4.08 16.149,4.23 C17.269,4.7 17.999998,5.78 17.999998,7 C17.999998,7.79 17.679,8.56 17.125,9.12 C16.56,9.69 15.802,10 15.001,10 C13.782,10 12.697,9.27 12.23,8.15 L12.229,8.15 C11.766,7.02 12.016,5.74 12.88,4.88 Z M13.941,5.94 C14.225,5.65 14.597,5.5 15.001,5.5 C15.197,5.5 15.389,5.54 15.572,5.61 C16.137,5.85 16.5,6.39 16.5,7 C16.5,7.39 16.339,7.78 16.06,8.06 C15.779,8.34 15.405,8.5 15.001,8.5 C14.393,8.5 13.851,8.14 13.615,7.57 C13.382,7.01 13.509,6.37 13.939,5.94 L13.941,5.94 Z" id="Shape"></path>
            <path d="M13.307,0.07 C13.647,0.02 13.991,0 14.328,0 C16.377,0 18.308,0.8 19.757,2.25 C21.436,3.93 22.248,6.34 21.933,8.69 L21.933,8.69 C21.614,11.05 20.196,13.16 18.133,14.33 C16.973,15 15.657,15.35 14.322,15.35 C13.446,15.35 12.589,15.2 11.769,14.91 L10.729,15.95 C10.504,16.19 10.19,16.32 9.866,16.32 L8.601,16.32 L8.601,17.39 L8.601,17.41 C8.593,17.76 8.455,18.08 8.218,18.33 L8.211,18.34 C7.952,18.61 7.597,18.75 7.24,18.75 L6.156,18.75 L6.156,19.97 C6.167,20.29 6.046,20.6 5.825,20.84 C5.821,20.84 5.817,20.84 5.814,20.85 C5.812,20.85 5.809,20.85 5.807,20.85 L4.881,21.78 C4.74,21.92 4.549,22 4.35,22 L0.75,22 C0.336,22 0,21.66 0,21.25 L0,17.63 C0,17.44 0.079,17.24 0.22,17.1 L7.089,10.24 C6.353,8.15 6.555,5.8 7.661,3.87 C8.843,1.8 10.951,0.38 13.307,0.07 Z M13.51,1.55 C13.777,1.52 14.052,1.5 14.328,1.5 C15.979,1.5 17.529,2.14 18.696,3.31 C20.045,4.66 20.7,6.6 20.446,8.49 C20.19,10.39 19.045,12.09 17.389,13.03 C16.455,13.56 15.395,13.85 14.322,13.85 C13.496,13.85 12.69,13.68 11.925,13.36 C11.823,13.32 11.713,13.3 11.603,13.3 C11.351,13.3 11.156,13.4 11.021,13.54 L9.739,14.82 L8.135,14.82 C7.557,14.82 7.101,15.29 7.101,15.85 L7.101,17.25 L5.69,17.25 C5.113,17.25 4.656,17.72 4.656,18.28 L4.656,19.88 L4.04,20.5 L1.5,20.5 L1.5,17.94 L8.455,10.99 C8.682,10.76 8.776,10.41 8.634,10.08 C7.893,8.31 8.015,6.27 8.963,4.61 C9.913,2.95 11.614,1.81 13.507,1.55 L13.51,1.55 Z" id="Shape"></path>
        </g>
        <path id="Line-3" d="M146.862354,180 L151.362354,189 L147.362,189 L147.362,209.5 L282,209.5 L282,216.5 L286,216.5 L281.5,225.5 L277,216.5 L281,216.5 L281,210.5 L146.362354,210.5 L146.362,189 L142.362354,189 L146.862354,180 Z" fill="#979797" fill-rule="nonzero"></path>
        <text id="Key-Exchange" font-family="HelveticaNeue-Bold, Helvetica Neue" font-size="8" font-weight="bold" letter-spacing="0.08" fill="#222222">
            <tspan x="83.664" y="206">Key Exchange</tspan>
        </text>
        <text id="KEK" font-family="Helvetica-Bold, Helvetica" font-size="9" font-weight="bold" letter-spacing="0.09" fill="#222222">
            <tspan x="706.864023" y="120">KEK</tspan>
        </text>
        <g id="Union_344" transform="translate(706.000000, 80.000000)" fill="#000001">
            <path d="M12.88,4.88 C13.448,4.31 14.202,4 15.001,4 C15.398,4 15.785,4.08 16.149,4.23 C17.269,4.7 17.999998,5.78 17.999998,7 C17.999998,7.79 17.679,8.56 17.125,9.12 C16.56,9.69 15.802,10 15.001,10 C13.782,10 12.697,9.27 12.23,8.15 L12.229,8.15 C11.766,7.02 12.016,5.74 12.88,4.88 Z M13.941,5.94 C14.225,5.65 14.597,5.5 15.001,5.5 C15.197,5.5 15.389,5.54 15.572,5.61 C16.137,5.85 16.5,6.39 16.5,7 C16.5,7.39 16.339,7.78 16.06,8.06 C15.779,8.34 15.405,8.5 15.001,8.5 C14.393,8.5 13.851,8.14 13.615,7.57 C13.382,7.01 13.509,6.37 13.939,5.94 L13.941,5.94 Z" id="Shape"></path>
            <path d="M13.307,0.07 C13.647,0.02 13.991,0 14.328,0 C16.377,0 18.308,0.8 19.757,2.25 C21.436,3.93 22.248,6.34 21.933,8.69 L21.933,8.69 C21.614,11.05 20.196,13.16 18.133,14.33 C16.973,15 15.657,15.35 14.322,15.35 C13.446,15.35 12.589,15.2 11.769,14.91 L10.729,15.95 C10.504,16.19 10.19,16.32 9.866,16.32 L8.601,16.32 L8.601,17.39 L8.601,17.41 C8.593,17.76 8.455,18.08 8.218,18.33 L8.211,18.34 C7.952,18.61 7.597,18.75 7.24,18.75 L6.156,18.75 L6.156,19.97 C6.167,20.29 6.046,20.6 5.825,20.84 C5.821,20.84 5.817,20.84 5.814,20.85 C5.812,20.85 5.809,20.85 5.807,20.85 L4.881,21.78 C4.74,21.92 4.549,22 4.35,22 L0.75,22 C0.336,22 0,21.66 0,21.25 L0,17.63 C0,17.44 0.079,17.24 0.22,17.1 L7.089,10.24 C6.353,8.15 6.555,5.8 7.661,3.87 C8.843,1.8 10.951,0.38 13.307,0.07 Z M13.51,1.55 C13.777,1.52 14.052,1.5 14.328,1.5 C15.979,1.5 17.529,2.14 18.696,3.31 C20.045,4.66 20.7,6.6 20.446,8.49 C20.19,10.39 19.045,12.09 17.389,13.03 C16.455,13.56 15.395,13.85 14.322,13.85 C13.496,13.85 12.69,13.68 11.925,13.36 C11.823,13.32 11.713,13.3 11.603,13.3 C11.351,13.3 11.156,13.4 11.021,13.54 L9.739,14.82 L8.135,14.82 C7.557,14.82 7.101,15.29 7.101,15.85 L7.101,17.25 L5.69,17.25 C5.113,17.25 4.656,17.72 4.656,18.28 L4.656,19.88 L4.04,20.5 L1.5,20.5 L1.5,17.94 L8.455,10.99 C8.682,10.76 8.776,10.41 8.634,10.08 C7.893,8.31 8.015,6.27 8.963,4.61 C9.913,2.95 11.614,1.81 13.507,1.55 L13.51,1.55 Z" id="Shape"></path>
        </g>
        <g id="Legend_2" transform="translate(336.000000, 240.000000)">
            <text id="Create-credentials-f" font-family="Helvetica-Bold, Helvetica" font-size="9" font-weight="bold" letter-spacing="0.09" fill="#222222">
                <tspan x="43" y="9">Create credentials for an internal </tspan>
                <tspan x="43" y="20">database admin account to use EKM</tspan>
            </text>
            <g id="Number_1" transform="translate(0.000000, 3.000000)">
                <circle id="Oval" stroke="#1E90FF" fill="#006FC3" cx="12.5" cy="12.5" r="12"></circle>
                <text id="2" font-family="HelveticaNeue-Bold, Helvetica Neue" font-size="8" font-weight="bold" letter-spacing="0.08" fill="#FFFFFF">
                    <tspan x="10.236" y="15">2</tspan>
                </text>
            </g>
        </g>
        <g id="Legend_3" transform="translate(336.000000, 285.000000)">
            <text id="Create-an-asymmetric" font-family="Helvetica-Bold, Helvetica" font-size="9" font-weight="bold" letter-spacing="0.09" fill="#222222">
                <tspan x="43" y="9">Create an asymmetric key</tspan>
            </text>
            <g id="Number_1" transform="translate(0.000000, 2.000000)">
                <circle id="Oval" stroke="#1E90FF" fill="#006FC3" cx="12.5" cy="12.5" r="12"></circle>
                <text id="3" font-family="HelveticaNeue-Bold, Helvetica Neue" font-size="8" font-weight="bold" letter-spacing="0.08" fill="#FFFFFF">
                    <tspan x="10.236" y="15">3</tspan>
                </text>
            </g>
        </g>
        <g id="Legend_4" transform="translate(562.000000, 195.000000)">
            <text id="Enable-TDE" font-family="Helvetica-Bold, Helvetica" font-size="9" font-weight="bold" letter-spacing="0.09" fill="#222222">
                <tspan x="43" y="9">Enable TDE</tspan>
            </text>
            <g id="Number_1" transform="translate(0.000000, 3.000000)">
                <circle id="Oval" stroke="#1E90FF" fill="#006FC3" cx="12.5" cy="12.5" r="12"></circle>
                <text id="4" font-family="HelveticaNeue-Bold, Helvetica Neue" font-size="8" font-weight="bold" letter-spacing="0.08" fill="#FFFFFF">
                    <tspan x="10.236" y="15">4</tspan>
                </text>
            </g>
        </g>
        <g id="Legend_5" transform="translate(562.000000, 229.000000)">
            <text id="Protect-the-database" font-family="Helvetica-Bold, Helvetica" font-size="9" font-weight="bold" letter-spacing="0.09" fill="#222222">
                <tspan x="42" y="9">Protect the database encryption key </tspan>
                <tspan x="42" y="20">with the asymmetric key managed by </tspan>
                <tspan x="42" y="31">Vault's Transit secret engine</tspan>
            </text>
            <g id="Number_1" transform="translate(0.000000, 14.000000)">
                <circle id="Oval" stroke="#1E90FF" fill="#006FC3" cx="12.5" cy="12.5" r="12"></circle>
                <text id="5" font-family="HelveticaNeue-Bold, Helvetica Neue" font-size="8" font-weight="bold" letter-spacing="0.08" fill="#FFFFFF">
                    <tspan x="10.236" y="15">5</tspan>
                </text>
            </g>
        </g>
        <g id="Legend_6" transform="translate(562.000000, 286.000000)">
            <text id="Encrypt-a-sample-dat" font-family="Helvetica-Bold, Helvetica" font-size="9" font-weight="bold" letter-spacing="0.09" fill="#222222">
                <tspan x="42" y="9">Encrypt a sample database</tspan>
            </text>
            <g id="Number_1" transform="translate(0.000000, 3.000000)">
                <circle id="Oval" stroke="#1E90FF" fill="#006FC3" cx="12.5" cy="12.5" r="12"></circle>
                <text id="6" font-family="HelveticaNeue-Bold, Helvetica Neue" font-size="8" font-weight="bold" letter-spacing="0.08" fill="#FFFFFF">
                    <tspan x="10.236" y="15">6</tspan>
                </text>
            </g>
        </g>
        <g id="Legend_1" transform="translate(336.000000, 195.000000)">
            <text id="Enable-the-EKM-featu" font-family="Helvetica-Bold, Helvetica" font-size="9" font-weight="bold" letter-spacing="0.09" fill="#222222">
                <tspan x="42" y="9">Enable the EKM feature and create a </tspan>
                <tspan x="42" y="20">cryptographic provider</tspan>
            </text>
            <g id="Number_1" transform="translate(0.000000, 3.000000)">
                <circle id="Oval" stroke="#1E90FF" fill="#006FC3" cx="12.5" cy="12.5" r="12"></circle>
                <text id="1" font-family="HelveticaNeue-Bold, Helvetica Neue" font-size="8" font-weight="bold" letter-spacing="0.08" fill="#FFFFFF">
                    <tspan x="10.236" y="15">1</tspan>
                </text>
            </g>
        </g>
        <path id="Path-3" d="M255.598524,242.691243 L255.5081,246.786309 C259.682477,247.834587 262.684306,251.608566 262.684306,256 L262.682895,256.16372 L262.682895,256.16372 L262.678663,256.327392 L262.499703,261.517231 L261.500297,261.482769 L261.679257,256.292929 C261.682623,256.195322 261.684306,256.097665 261.684306,256 C261.684306,252.148671 259.103346,248.827669 255.484666,247.814647 L255.397223,251.688991 L246.500125,246.988817 L255.598524,242.691243 Z" transform="translate(254.750000, 254.250000) rotate(-45.000000) translate(-254.750000, -254.250000) " fill="#000000" fill-rule="nonzero"></path>
        <path id="Path-3" d="M133.184306,246.5 C137.314333,246.5 140.921859,249.15849 142.198822,252.993952 L146.327215,252.91075 L142.01011,261.999898 L137.329055,253.092725 L141.145754,253.014951 C139.951644,249.826213 136.931018,247.614355 133.456234,247.504302 L133.184306,247.5 L127,247.5 L127,246.5 L133.184306,246.5 Z" transform="translate(134.750000, 254.250000) rotate(-45.000000) translate(-134.750000, -254.250000) " fill="#000000" fill-rule="nonzero"></path>
    </g>
</svg>