<?xml version="1.0" encoding="UTF-8"?>
<svg width="450px" height="375px" viewBox="0 0 450 375" version="1.1" xmlns="http://www.w3.org/2000/svg" xmlns:xlink="http://www.w3.org/1999/xlink">
    <title>page_05_hashi-container-6-5</title>
    <defs>
        <linearGradient x1="14.7407012%" y1="14.922265%" x2="85.5289888%" y2="85.51315%" id="linearGradient-1">
            <stop stop-color="#86D633" offset="0%"></stop>
            <stop stop-color="#5E9624" offset="100%"></stop>
        </linearGradient>
        <linearGradient x1="-73.2758621%" y1="32.3275862%" x2="-3.01724138%" y2="103.017241%" id="linearGradient-2">
            <stop stop-color="#86D633" offset="0%"></stop>
            <stop stop-color="#5E9624" offset="100%"></stop>
        </linearGradient>
        <linearGradient x1="50%" y1="99.9004975%" x2="50%" y2="0%" id="linearGradient-3">
            <stop stop-color="#32BEDD" offset="0%"></stop>
            <stop stop-color="#32CAEA" offset="18%"></stop>
            <stop stop-color="#32D2F2" offset="41%"></stop>
            <stop stop-color="#32D4F5" offset="78%"></stop>
        </linearGradient>
        <linearGradient x1="49.9352264%" y1="0%" x2="49.9352264%" y2="100%" id="linearGradient-4">
            <stop stop-color="#5EA0EF" offset="0%"></stop>
            <stop stop-color="#559CEC" offset="18%"></stop>
            <stop stop-color="#3C91E5" offset="47%"></stop>
            <stop stop-color="#1380DA" offset="84%"></stop>
            <stop stop-color="#0078D4" offset="100%"></stop>
        </linearGradient>
        <linearGradient x1="50.0295683%" y1="100.088731%" x2="50.0295683%" y2="0%" id="linearGradient-5">
            <stop stop-color="#0078D4" offset="0%"></stop>
            <stop stop-color="#5EA0EF" offset="82%"></stop>
        </linearGradient>
        <linearGradient x1="50%" y1="98.8662132%" x2="50%" y2="4.02802004e-14%" id="linearGradient-6">
            <stop stop-color="#CCCCCC" offset="15%"></stop>
            <stop stop-color="#707070" offset="100%"></stop>
        </linearGradient>
        <radialGradient cx="50.8087536%" cy="49.83378%" fx="50.8087536%" fy="49.83378%" r="134.578753%" gradientTransform="translate(0.508088,0.498338),scale(0.513991,1.000000),translate(-0.508088,-0.498338)" id="radialGradient-7">
            <stop stop-color="#F2F2F2" offset="0%"></stop>
            <stop stop-color="#EEEEEE" offset="58%"></stop>
            <stop stop-color="#E6E6E6" offset="100%"></stop>
        </radialGradient>
        <linearGradient x1="0%" y1="50%" x2="100%" y2="50%" id="linearGradient-8">
            <stop stop-color="#005BA1" offset="0%"></stop>
            <stop stop-color="#0060A9" offset="7%"></stop>
            <stop stop-color="#0071C8" offset="36%"></stop>
            <stop stop-color="#0078D4" offset="52%"></stop>
            <stop stop-color="#0074CD" offset="64%"></stop>
            <stop stop-color="#006ABB" offset="82%"></stop>
            <stop stop-color="#005BA1" offset="100%"></stop>
        </linearGradient>
        <radialGradient cx="50.3435013%" cy="50.1177378%" fx="50.3435013%" fy="50.1177378%" r="135.121683%" gradientTransform="translate(0.503435,0.501177),scale(0.509448,1.000000),translate(-0.503435,-0.501177)" id="radialGradient-9">
            <stop stop-color="#F2F2F2" offset="0%"></stop>
            <stop stop-color="#EEEEEE" offset="58%"></stop>
            <stop stop-color="#E6E6E6" offset="100%"></stop>
        </radialGradient>
        <linearGradient x1="50%" y1="100%" x2="50%" y2="0%" id="linearGradient-10">
            <stop stop-color="#0078D4" offset="0%"></stop>
            <stop stop-color="#5EA0EF" offset="82%"></stop>
        </linearGradient>
        <linearGradient x1="50.0001472%" y1="100%" x2="50.0001472%" y2="-3.83662384e-14%" id="linearGradient-11">
            <stop stop-color="#1490DF" offset="0%"></stop>
            <stop stop-color="#1F56A3" offset="98%"></stop>
        </linearGradient>
    </defs>
    <g id="page_05_hashi-container-6-5" stroke="none" stroke-width="1" fill="none" fill-rule="evenodd">
        <rect id="Rectangle" stroke="#222222" x="8.5" y="30.9" width="434" height="328" rx="5"></rect>
        <rect id="Rectangle" stroke="#A6DAF0" stroke-width="2" fill="#E1F2FA" x="39" y="60.4" width="373" height="268" rx="5"></rect>
        <rect id="Rectangle" stroke="#A6DAF0" stroke-width="2" fill="#B4E0F2" x="68.6" y="120" width="328" height="193" rx="5"></rect>
        <rect id="Rectangle" stroke="#1E90FF" fill-opacity="0.5" fill="#87CEEB" x="83.5" y="132.9" width="59" height="166" rx="5"></rect>
        <rect id="Rectangle" stroke="#1E90FF" fill-opacity="0.5" fill="#87CEEB" x="188.1" y="134.5" width="194" height="74" rx="5"></rect>
        <rect id="Rectangle" stroke="#1E90FF" fill-opacity="0.5" fill="#87CEEB" x="188.1" y="224.5" width="194" height="74" rx="5"></rect>
        <g id="10061-icon-service-Virtual-Networks" transform="translate(214.600000, 93.000000)" fill-rule="nonzero">
            <circle id="Oval" fill="url(#linearGradient-1)" cx="25.2791016" cy="10.7149817" r="2.25692145"></circle>
            <circle id="Oval" fill="url(#linearGradient-2)" cx="18.0803004" cy="10.7344379" r="2.25692145"></circle>
            <circle id="Oval" fill="url(#linearGradient-2)" cx="10.8814992" cy="10.7344379" r="2.25692145"></circle>
            <path d="M5.55926615,7.39263238 L7.38815077,7.39263238 C7.71051197,7.39263238 7.97183735,7.65395776 7.97183735,7.97631896 L7.97183735,21.4789352 C7.97183735,22.1236576 7.44918658,22.6463084 6.80446419,22.6463084 L4.97557957,22.6463084 L4.97557957,7.97631896 C4.97557957,7.65395776 5.23690495,7.39263238 5.55926615,7.39263238 Z" id="Path" fill="#50E6FF" transform="translate(6.473708, 15.019470) rotate(134.920000) translate(-6.473708, -15.019470) "></path>
            <path d="M5.45626523,-1.11075612 L7.28514985,-1.11075612 C7.60751105,-1.11075612 7.86883643,-0.849430735 7.86883643,-0.527069538 L7.86883643,13.9289014 L6.03995181,13.9289014 C5.39522942,13.9289014 4.87257865,13.4062507 4.87257865,12.7615283 L4.87257865,-0.527069538 C4.87257865,-0.849430735 5.13390403,-1.11075612 5.45626523,-1.11075612 Z" id="Path" fill="#1490DF" transform="translate(6.370708, 6.409073) rotate(44.920000) translate(-6.370708, -6.409073) "></path>
            <path d="M28.0314683,7.3749012 L29.8603529,7.3749012 C30.5050753,7.3749012 31.027726,7.89755196 31.027726,8.54227436 L31.027726,22.0448906 C31.027726,22.1996939 30.9662307,22.3481569 30.8567682,22.4576193 C30.7473057,22.5670818 30.5988428,22.6285772 30.4440395,22.6285772 L28.6151548,22.6285772 C28.2927936,22.6285772 28.0314683,22.3672518 28.0314683,22.0448906 L28.0314683,7.3749012 L28.0314683,7.3749012 Z" id="Path" fill="#50E6FF" transform="translate(29.529597, 15.001739) rotate(45.080000) translate(-29.529597, -15.001739) "></path>
            <path d="M29.3013764,-1.13036151 L31.1302611,-1.13036151 L31.1302611,13.3256095 C31.1302611,13.6479707 30.8689357,13.9092961 30.5465745,13.9092961 L28.6982336,13.9092961 C28.3758724,13.9092961 28.114547,13.6479707 28.114547,13.3256095 L28.114547,0.0370116539 C28.114547,-0.607710741 28.6371978,-1.13036151 29.2819202,-1.13036151 L29.3013764,-1.13036151 Z" id="Path" fill="#1490DF" transform="translate(29.622404, 6.389467) rotate(135.080000) translate(-29.622404, -6.389467) "></path>
        </g>
        <g id="10069-icon-service-Public-IP-Addresses" transform="translate(217.600000, 152.000000)" fill-rule="nonzero">
            <path d="M0,6.38823529 L30,6.38823529 L30,23.1176471 C30,23.6731805 29.5496511,24.1235294 28.9941176,24.1235294 L1.00588235,24.1235294 C0.450348869,24.1235294 0,23.6731805 0,23.1176471 L0,6.38823529 Z" id="Path" fill="url(#linearGradient-3)"></path>
            <path d="M1.00588235,1.56737368e-15 L28.9941176,1.56737368e-15 C29.5496511,1.56737368e-15 30,0.450348869 30,1.00588235 L30,6.38823529 L0,6.38823529 L0,0.988235294 C0.00962655884,0.43960552 0.457168135,-8.44499403e-05 1.00588235,1.56737368e-15 Z" id="Path" fill="#767676"></path>
            <circle id="Oval" fill="#F2F2F2" cx="21.7411765" cy="14.1529412" r="2.43529412"></circle>
            <circle id="Oval" fill="#F2F2F2" cx="15.1058824" cy="14.1529412" r="2.43529412"></circle>
            <circle id="Oval" fill="#F2F2F2" cx="8.25882353" cy="14.1529412" r="2.43529412"></circle>
            <rect id="Rectangle" fill="#F2F2F2" x="4.04117647" y="1.90588235" width="21.9352941" height="2.57647059" rx="0.28"></rect>
        </g>
        <g id="10069-icon-service-Public-IP-Addresses" transform="translate(217.600000, 242.000000)" fill-rule="nonzero">
            <path d="M0,6.38823529 L30,6.38823529 L30,23.1176471 C30,23.6731805 29.5496511,24.1235294 28.9941176,24.1235294 L1.00588235,24.1235294 C0.450348869,24.1235294 0,23.6731805 0,23.1176471 L0,6.38823529 Z" id="Path" fill="url(#linearGradient-3)"></path>
            <path d="M1.00588235,1.56737368e-15 L28.9941176,1.56737368e-15 C29.5496511,1.56737368e-15 30,0.450348869 30,1.00588235 L30,6.38823529 L0,6.38823529 L0,0.988235294 C0.00962655884,0.43960552 0.457168135,-8.44499403e-05 1.00588235,1.56737368e-15 Z" id="Path" fill="#767676"></path>
            <circle id="Oval" fill="#F2F2F2" cx="21.7411765" cy="14.1529412" r="2.43529412"></circle>
            <circle id="Oval" fill="#F2F2F2" cx="15.1058824" cy="14.1529412" r="2.43529412"></circle>
            <circle id="Oval" fill="#F2F2F2" cx="8.25882353" cy="14.1529412" r="2.43529412"></circle>
            <rect id="Rectangle" fill="#F2F2F2" x="4.04117647" y="1.90588235" width="21.9352941" height="2.57647059" rx="0.28"></rect>
        </g>
        <g id="10007-icon-service-Resource-Groups" transform="translate(52.600000, 72.000000)" fill-rule="nonzero">
            <g id="Group" transform="translate(-0.000000, 0.000000)">
                <path d="M-4.70211748e-16,29.8626973 C-0.00107969449,29.9848322 0.0636463256,30.0981027 0.169425272,30.1591677 L2.625894,31.5356373 L6.77647909,33.9285766 C6.94638313,34.0256248 7.16269258,33.9691962 7.26353754,33.8015179 L8.66118354,31.429755 C8.74231855,31.2711673 8.68679522,31.0768356 8.53412482,30.9850494 L3.66354027,28.2321103 C3.56081353,28.1680577 3.49715889,28.0566621 3.49412864,27.93564 L3.49412864,6.08153889 C3.49303531,5.95940404 3.55776133,5.8461335 3.66354027,5.78506852 L8.53412482,3.03212943 C8.68679522,2.94034327 8.74231855,2.7460116 8.66118354,2.58742389 L7.26353754,0.215660979 C7.22238332,0.12771604 7.14744884,0.0601243839 7.05574028,0.0282257549 C6.96403173,-0.00367287413 6.86332639,0.00282667343 6.77647909,0.0462493427 L2.71059982,2.3968358 L0.169425272,3.81565825 C0.0636463256,3.87672323 -0.00107969449,3.98999377 -4.70211748e-16,4.11212862 L-4.70211748e-16,29.8626973 Z" id="Path" fill="#949494"></path>
                <path d="M3.47295218,5.91212725 L3.60001091,5.78506852 L8.47059545,3.03212943 C8.55349403,2.99729408 8.61610252,2.92671748 8.64080555,2.84025687 C8.66550858,2.75379626 8.64963618,2.66079655 8.59765418,2.58742389 L7.20000818,0.215660979 C7.16905805,0.124367703 7.0983258,0.0520683107 7.00773258,0.0191253203 C6.91713935,-0.0138176701 6.81648802,-0.00383958091 6.73412618,0.0462493427 L2.64707045,2.3968358 L0.127072363,3.81565825 C0.127072363,3.81565825 0.0211900898,3.81565825 1.36352544e-05,3.94271698 L1.90589454,5.02271616 L3.47295218,5.91212725 Z" id="Path" fill="#A3A3A3"></path>
                <path d="M8.47059545,30.9426965 L3.60001091,28.1897574 C3.53470928,28.1403585 3.48358044,28.0746214 3.45177573,27.9991693 L0.0211900898,30.1168148 L0.127072363,30.1168148 L2.56236464,31.4932843 L6.79765554,33.8438708 C6.87445366,33.8961007 6.97026362,33.9121031 7.05986685,33.8876659 C7.14947008,33.8632286 7.22388976,33.8008 7.26353754,33.7168121 L8.66118354,31.3450492 C8.6949164,31.2667896 8.69334107,31.1777985 8.65685949,31.1007818 C8.62037792,31.0237651 8.55251849,30.9661718 8.47059545,30.9426965 Z" id="Path" fill="#A3A3A3"></path>
            </g>
            <path d="M36,29.8626973 C36.0010797,29.9848322 35.9363537,30.0981027 35.8305747,30.1591677 L33.374106,31.5356373 L29.2235209,33.9285766 C29.0536169,34.0256248 28.8373074,33.9691962 28.7364625,33.8015179 L27.3388165,31.429755 C27.2576815,31.2711673 27.3132048,31.0768356 27.4658752,30.9850494 L32.3364597,28.2321103 C32.4391865,28.1680577 32.5028411,28.0566621 32.5058714,27.93564 L32.5058714,6.08153889 C32.5069647,5.95940404 32.4422387,5.8461335 32.3364597,5.78506852 L27.4658752,3.03212943 C27.3132048,2.94034327 27.2576815,2.7460116 27.3388165,2.58742389 L28.7364625,0.215660979 C28.7776167,0.12771604 28.8525512,0.0601243839 28.9442597,0.0282257549 C29.0359683,-0.00367287413 29.1366736,0.00282667343 29.2235209,0.0462493427 L33.2894002,2.35448289 L35.8305747,3.77330534 C35.9363537,3.83437032 36.0010797,3.94764086 36,4.06977571 L36,29.8626973 L36,29.8626973 Z" id="Path" fill="#949494"></path>
            <path d="M32.5270478,5.91212725 L32.3999891,5.78506852 L27.5294045,3.03212943 C27.446506,2.99729408 27.3838975,2.92671748 27.3591945,2.84025687 C27.3344914,2.75379626 27.3503638,2.66079655 27.4023458,2.58742389 L28.7999918,0.215660979 C28.8309419,0.124367703 28.9016742,0.0520683107 28.9922674,0.0191253203 C29.0828606,-0.0138176701 29.183512,-0.00383958091 29.2658738,0.0462493427 L33.3529295,2.35448289 L35.8729276,3.77330534 C35.8729276,3.77330534 35.8729276,3.77330534 35.9999864,3.90036407 L34.0941055,4.98036325 L32.5270478,5.91212725 Z" id="Path" fill="#A3A3A3"></path>
            <path d="M27.5294045,30.9426965 L32.3999891,28.1897574 C32.4652907,28.1403585 32.5164196,28.0746214 32.5482243,27.9991693 L35.9788099,30.1168148 L35.9788099,30.1168148 L33.5435176,31.4932843 L29.3082267,33.8438708 C29.2314286,33.8961007 29.1356187,33.9121031 29.0460154,33.8876659 C28.9564122,33.8632286 28.8819925,33.8008 28.8423447,33.7168121 L27.4446987,31.3450492 C27.3602359,31.2099583 27.3976446,31.0322668 27.5294045,30.9426965 Z" id="Path" fill="#A3A3A3"></path>
            <polygon id="Path" fill="#32BEDD" points="29.2446974 10.4862414 29.2446974 23.4885845 17.9788235 30.032109 17.9788235 17.0085894"></polygon>
            <polygon id="Path" fill="#9CEBFF" points="29.2446974 10.4862414 18 17.0297659 6.73412618 10.4862414 18 3.94271698"></polygon>
            <polygon id="Path" fill="#50E6FF" points="17.9788235 17.0297659 17.9788235 30.032109 6.73412618 23.4885845 6.73412618 10.4862414"></polygon>
            <polygon id="Path" fill="#9CEBFF" points="6.73412618 23.4885845 17.9788235 17.0085894 17.9788235 30.032109"></polygon>
            <polygon id="Path" fill="#50E6FF" points="29.2446974 23.4885845 17.9788235 17.0085894 17.9788235 30.032109"></polygon>
        </g>
        <g id="size=24_13" transform="translate(323.600000, 239.000000)" fill="#000001" fill-rule="nonzero">
            <g id="Logo-Group_13">
                <path d="M0,0 L15.4125809,30 L30.9365332,0 L0,0 Z M13.0157026,11.9091591 L10.5601856,11.9091591 L10.5601856,9.45392331 L13.0157026,9.45392331 L13.0157026,11.9091591 Z M13.0157026,8.22489922 L10.5601856,8.22489922 L10.5601856,5.77247586 L13.0157026,5.77247586 L13.0157026,8.22489922 Z M16.6974313,15.5906065 L14.2419143,15.5906065 L14.2419143,13.1353708 L16.6974313,13.1353708 L16.6974313,15.5906065 Z M16.6974313,11.9091591 L14.2419143,11.9091591 L14.2419143,9.45392331 L16.6974313,9.45392331 L16.6974313,11.9091591 Z M16.6974313,8.22489922 L14.2419143,8.22489922 L14.2419143,5.77247586 L16.6974313,5.77247586 L16.6974313,8.22489922 Z M20.3596138,11.9091591 L17.9042374,11.9091591 L17.9042374,9.45392331 L20.3596138,9.45392331 L20.3596138,11.9091591 Z M17.9042374,8.22489922 L17.9042374,5.77247586 L20.3596138,5.77247586 L20.3596138,8.22489922 L17.9042374,8.22489922 Z" id="Vector_48"></path>
            </g>
        </g>
        <g id="10067-icon-service-Network-Security-Groups" transform="translate(100.600000, 201.000000)" fill-rule="nonzero">
            <path d="M24.5366436,14.001889 C24.5366436,22.069644 14.785328,28.570521 12.6683757,29.8873654 C12.4228145,30.0375449 12.113829,30.0375449 11.8682678,29.8873654 C9.75131555,28.570521 -1.4804971e-15,22.069644 -1.4804971e-15,14.001889 L-1.4804971e-15,4.30058018 C-1.4804971e-15,3.88352986 0.333149446,3.54287637 0.750101216,3.53381007 C8.33445774,3.33378309 6.58422162,0 12.2683218,0 C17.9524219,0 16.2021858,3.33378309 23.7865423,3.53381007 C24.2034941,3.54287637 24.5366436,3.88352986 24.5366436,4.30058018 L24.5366436,14.001889 Z" id="Path" fill="#0078D4"></path>
            <path d="M23.5198397,14.0852335 C23.5198397,21.486232 14.585301,27.4203659 12.6350379,28.6538656 C12.4090741,28.7884192 12.1275694,28.7884192 11.9016056,28.6538656 C9.95134253,27.4537037 1.01680383,21.486232 1.01680383,14.0852335 L1.01680383,5.1840327 C1.01680383,4.80379838 1.32010285,4.49299143 1.7002294,4.48393825 C8.65116713,4.30058018 7.05095125,1.25016866 12.2683218,1.25016866 C17.4856923,1.25016866 15.8854764,4.30058018 22.8364142,4.48393825 C23.2165407,4.49299143 23.5198397,4.80379838 23.5198397,5.1840327 L23.5198397,14.0852335 Z" id="Path" fill="#6BB9F2"></path>
            <path d="M12.2683218,15.0020239 L12.2683218,1.25016866 C17.4856923,1.25016866 15.8854764,4.30058018 22.8364142,4.48393825 C23.2191951,4.50176108 23.5202544,4.81750616 23.5198397,5.20070161 L23.5198397,14.1019025 C23.536419,14.4017139 23.536419,14.7022124 23.5198397,15.0020239 L12.2683218,15.0020239 Z M12.2683218,15.0020239 L1.06681061,15.0020239 C1.73356723,21.9696305 10.0346871,27.5037105 11.9016056,28.6538656 C11.991861,28.7113946 12.0949244,28.745749 12.2016461,28.7538791 L12.2683218,28.7538791 L12.2683218,15.0020239 Z" id="Shape" fill="url(#linearGradient-4)"></path>
            <path d="M1.7002294,4.48393825 C8.65116713,4.30058018 7.05095125,1.25016866 12.2683218,1.25016866 L12.2683218,15.0020239 L1.06681061,15.0020239 C1.05023131,14.7022124 1.05023131,14.4017139 1.06681061,14.1019025 L1.06681061,5.20070161 C1.0643324,4.8352323 1.33722988,4.52642726 1.7002294,4.48393825 Z" id="Path" fill="#50E6FF"></path>
            <path d="M23.4698329,15.0020239 L12.2683218,15.0020239 L12.2683218,28.7538791 L12.2683218,28.7538791 C12.3750435,28.745749 12.4781069,28.7113946 12.5683623,28.6538656 C14.5019564,27.5037105 22.8030763,21.9696305 23.4698329,15.0020239 Z" id="Path" fill="#50E6FF"></path>
        </g>
        <line x1="186.6" y1="172" x2="143.6" y2="172" id="Line-2" stroke="#1E90FF" stroke-width="3" stroke-linecap="square"></line>
        <line x1="187.6" y1="262" x2="144.6" y2="262" id="Line-2" stroke="#1E90FF" stroke-width="3" stroke-linecap="square"></line>
        <text id="3389" font-family="HelveticaNeue-Bold, Helvetica Neue" font-size="8" font-weight="bold" letter-spacing="0.08" fill="#222222">
            <tspan x="156.044" y="157">3389</tspan>
        </text>
        <text id="example-rg" font-family="HelveticaNeue-Bold, Helvetica Neue" font-size="12" font-weight="bold" letter-spacing="0.12" fill="#222222">
            <tspan x="98.6" y="91">example-rg</tspan>
        </text>
        <text id="private-network" font-family="HelveticaNeue-Bold, Helvetica Neue" font-size="12" font-weight="bold" letter-spacing="0.12" fill="#222222">
            <tspan x="262.6" y="108">private network</tspan>
        </text>
        <text id="Public-IP" font-family="HelveticaNeue-Bold, Helvetica Neue" font-size="9" font-weight="bold" letter-spacing="0.09" fill="#222222">
            <tspan x="213.7905" y="192">Public IP</tspan>
        </text>
        <text id="Windows" font-family="HelveticaNeue-Bold, Helvetica Neue" font-size="9" font-weight="bold" letter-spacing="0.09" fill="#222222">
            <tspan x="265.129" y="192">Windows</tspan>
        </text>
        <text id="Database" font-family="HelveticaNeue-Bold, Helvetica Neue" font-size="9" font-weight="bold" letter-spacing="0.09" fill="#222222">
            <tspan x="317.3235" y="192">Database</tspan>
        </text>
        <text id="Public-IP" font-family="HelveticaNeue-Bold, Helvetica Neue" font-size="9" font-weight="bold" letter-spacing="0.09" fill="#222222">
            <tspan x="213.7905" y="282">Public IP</tspan>
        </text>
        <text id="Linux" font-family="HelveticaNeue-Bold, Helvetica Neue" font-size="9" font-weight="bold" letter-spacing="0.09" fill="#222222">
            <tspan x="273.292" y="282">Linux</tspan>
        </text>
        <text id="Database" font-family="HelveticaNeue-Bold, Helvetica Neue" font-size="9" font-weight="bold" letter-spacing="0.09" fill="#222222">
            <tspan x="321.3235" y="282">Database</tspan>
        </text>
        <text id="22,-8200" font-family="HelveticaNeue-Bold, Helvetica Neue" font-size="8" font-weight="bold" letter-spacing="0.08" fill="#222222">
            <tspan x="149.212" y="247">22, 8200</tspan>
        </text>
        <g id="Group-2" transform="translate(37.600000, 16.000000)">
            <rect id="Rectangle" stroke="#FFFFFF" stroke-width="6" fill="#FFFFFF" x="3" y="3" width="30" height="22"></rect>
            <g id="size=24_16" transform="translate(0.000000, 0.000000)" fill="#0089D6" fill-rule="nonzero">
                <g id="Vector_34">
                    <path d="M16.6546392,26.3487634 C21.2789691,25.5322685 25.0997938,24.8586603 25.1443299,24.8493819 L25.2241237,24.8326809 L20.857732,19.6479386 C18.4546392,16.7957737 16.4894845,14.4520623 16.4894845,14.437217 C16.4894845,14.4112376 20.9987629,2.01721697 21.0247423,1.97264971 C21.0321649,1.95783553 24.1014433,7.24649532 28.462268,14.79165 C32.5465979,21.856186 35.9127835,27.6811345 35.9424742,27.7349489 L36,27.8351551 L8.24474227,27.8314438 L16.6546392,26.3487634 Z" id="Path"></path>
                    <path d="M-1.05482633e-13,24.7677324 C-1.05482633e-13,24.7603098 2.05793814,21.1955675 4.57237113,16.8440211 L9.14474227,8.93515512 L14.4723711,4.47041285 C17.4043299,2.0153613 19.8092784,0.0038149093 19.8185567,0 C19.8278351,-0.00360777112 19.7907216,0.0928870742 19.7331959,0.215361301 C19.6775258,0.337835528 17.0721649,5.91226852 13.9472165,12.6038149 L8.26515464,24.7695881 L4.13257732,24.7751551 C1.85938144,24.7788665 -1.05482633e-13,24.7751551 -1.05482633e-13,24.7677324 Z" id="Path"></path>
                </g>
            </g>
        </g>
        <g id="10124-icon-service-Azure-SQL-VM" transform="translate(268.600000, 149.000000)" fill-rule="nonzero">
            <g id="Group">
                <rect id="Rectangle" fill="url(#linearGradient-5)" x="-1.6982379e-15" y="4.24559474e-16" width="32.332696" height="21.5487572" rx="0.56"></rect>
                <path d="M22.6577438,28.0879541 C19.4646272,27.5908222 19.3307839,25.2772467 19.3499044,21.5678776 L13.001912,21.5678776 C13.001912,25.2772467 12.8871893,27.5908222 9.69407266,28.0879541 C8.75897171,28.2394424 8.07576287,29.0527863 8.08779352,30 L24.2640229,30 C24.2760536,29.0527863 23.5928447,28.2394424 22.6577438,28.0879541 Z" id="Path" fill="url(#linearGradient-6)"></path>
            </g>
            <path d="M23.957935,12.8298279 L23.957935,6.17590822 L22.0458891,6.17590822 L22.0458891,14.3021033 L26.8833652,14.3021033 L26.8833652,12.8298279 L23.957935,12.8298279 Z M9.92351816,9.54110899 C9.56394054,9.39512607 9.22867933,9.19525881 8.9292543,8.94837476 C8.75854144,8.77635308 8.66829103,8.54031355 8.68068834,8.29827916 C8.67372811,8.06118815 8.78932625,7.83721676 8.98661568,7.70554493 C9.23003172,7.54679894 9.51905093,7.47286379 9.80879541,7.49521989 C10.4891168,7.47021355 11.1594515,7.66461063 11.7208413,8.04971319 L11.7208413,6.36711281 C11.1089331,6.14199696 10.4607183,6.03180046 9.80879541,6.04206501 C9.03232926,6.0043216 8.2673757,6.24125412 7.64818356,6.71128107 C7.11592959,7.13652381 6.8177655,7.78964516 6.84512428,8.47036329 C6.88075406,9.52626055 7.54277764,10.4591119 8.52772467,10.8413002 C8.96185534,11.0166075 9.36775334,11.2549921 9.73231358,11.5487572 C9.92791577,11.6992088 10.0412593,11.9329798 10.0382409,12.1797323 C10.0382409,12.4204645 9.92489931,12.6471477 9.73231358,12.791587 C9.49496265,12.9517519 9.21558374,13.0382263 8.9292543,13.040153 C8.136381,13.0319589 7.37419663,12.7325294 6.78776291,12.1988528 L6.78776291,14.1108987 C7.43918715,14.4380561 8.16251827,14.5958738 8.89101338,14.5697897 C9.72278277,14.5794666 10.5350255,14.3176694 11.2045889,13.8240918 C11.7624416,13.3989136 12.0767199,12.7275008 12.0458891,12.0267686 C12.0693318,11.5201045 11.8905029,11.0248861 11.5487572,10.6500956 C11.08835,10.1734172 10.535255,9.7960112 9.92351816,9.54110899 L9.92351816,9.54110899 Z M20.1338432,12.6768642 C20.5828005,11.9271138 20.8083401,11.0647565 20.7839388,10.1912046 C20.7942476,9.44151721 20.6237222,8.70038784 20.2868069,8.03059273 C19.9804099,7.4167084 19.5020968,6.90517907 18.9101338,6.5583174 C18.3274845,6.22539832 17.6691202,6.04763997 16.998088,6.04206501 C16.2560976,6.03280218 15.5245354,6.21734038 14.875717,6.57743786 C14.2499596,6.93141666 13.7440068,7.46399858 13.4225621,8.10707457 C13.0394298,8.7977502 12.835635,9.57348528 12.8298279,10.3632887 C12.8226626,11.0776815 12.9796617,11.7841772 13.2887189,12.4282983 C13.5989263,13.028355 14.0686798,13.5311897 14.6462715,13.8814532 C15.2237899,14.2336727 15.8822867,14.4312217 16.5583174,14.4550669 L18.2409178,16.3671128 L20.6118547,16.3671128 L18.2982792,14.1491396 C19.0657186,13.8922283 19.7164943,13.370252 20.1338432,12.6768642 L20.1338432,12.6768642 Z M18.2217973,12.1797323 C17.8647181,12.6362098 17.3094358,12.8924939 16.7304015,12.8680688 C16.146619,12.8946182 15.5877635,12.6295201 15.2390057,12.1606119 C14.8324469,11.6087719 14.6297364,10.9330703 14.665392,10.248566 C14.6328786,9.56444323 14.8352803,8.88977117 15.2390057,8.33652008 C15.6118511,7.87659177 16.1767309,7.61533485 16.7686424,7.6290631 C17.3471829,7.60210124 17.9004799,7.86797126 18.2409178,8.33652008 C18.6205156,8.89963523 18.8082759,9.57020755 18.7762906,10.248566 C18.852468,10.9287024 18.6829239,11.6136607 18.2982792,12.1797323 L18.2217973,12.1797323 Z" id="Shape" fill="url(#radialGradient-7)"></path>
        </g>
        <g id="10130-icon-service-SQL-Database" transform="translate(326.600000, 149.000000)" fill-rule="nonzero">
            <path d="M11.3117647,8.18823529 C5.06470588,8.18823529 0,6.42352941 0,4.09411765 L0,25.9058824 C0,28.1470588 4.97647059,29.9647059 11.1529412,30 L11.3117647,30 C17.5588235,30 22.6235294,28.2352941 22.6235294,25.9058824 L22.6235294,4.09411765 C22.6235294,6.37058824 17.5588235,8.18823529 11.3117647,8.18823529 Z" id="Path" fill="url(#linearGradient-8)"></path>
            <path d="M22.6235294,4.09411765 C22.6235294,6.37058824 17.5588235,8.18823529 11.3117647,8.18823529 C5.06470588,8.18823529 0,6.42352941 0,4.09411765 C0,1.76470588 5.06470588,0 11.3117647,0 C17.5588235,0 22.6235294,1.76470588 22.6235294,4.09411765" id="Path" fill="#E8E8E8"></path>
            <path d="M19.9941176,3.75882353 C19.9941176,5.20588235 16.0941176,6.37058824 11.3117647,6.37058824 C6.52941176,6.37058824 2.62941176,5.20588235 2.62941176,3.75882353 C2.62941176,2.31176471 6.52941176,1.16470588 11.3117647,1.16470588 C16.0941176,1.16470588 19.9941176,2.32941176 19.9941176,3.75882353" id="Path" fill="#50E6FF"></path>
            <path d="M11.3117647,4.41176471 C8.98285935,4.35228338 6.6609937,4.69250534 4.44705882,5.41764706 C6.66309701,6.12932136 8.9856691,6.45173497 11.3117647,6.37058824 C13.6425714,6.43886605 15.9669597,6.09229916 18.1764706,5.34705882 C15.9562273,4.65545342 13.6361041,4.3393441 11.3117647,4.41176471 Z" id="Path" fill="#198AB3"></path>
            <path d="M18.1941176,19.2352941 L18.1941176,13.2352941 L16.6058824,13.2352941 L16.6058824,20.5235294 L20.9470588,20.5235294 L20.9470588,19.2352941 L18.1941176,19.2352941 Z M5.59411765,16.2882353 C5.26620284,16.1563607 4.96216029,15.9715505 4.69411765,15.7411765 C4.55032288,15.5891644 4.47396756,15.3855502 4.48235294,15.1764706 C4.47134758,14.9657289 4.57186224,14.7646996 4.74705882,14.6470588 C4.96410611,14.4968815 5.22461088,14.4224515 5.48823529,14.4352941 C6.11675834,14.4070505 6.73704506,14.5869337 7.25294118,14.9470588 L7.25294118,13.4294118 C6.68913553,13.2196356 6.08934742,13.1236695 5.48823529,13.1470588 C4.79588828,13.1101977 4.11331425,13.3231107 3.56470588,13.7470588 C3.079616,14.1210672 2.80384824,14.7054322 2.82352941,15.3176471 C2.82352941,16.2176471 3.38823529,16.9235294 4.58823529,17.4529412 C4.97797848,17.6183077 5.34553155,17.8317256 5.68235294,18.0882353 C5.84934429,18.2283804 5.94616754,18.4349367 5.94705882,18.6529412 C5.94715108,18.8702745 5.8419119,19.0741754 5.66470588,19.2 C5.42454218,19.3406345 5.14854717,19.4081 4.87058824,19.3941176 C4.16079075,19.3882621 3.47726288,19.1248844 2.94705882,18.6529412 L2.94705882,20.2941176 C3.52983157,20.5946217 4.18000288,20.7404546 4.83529412,20.7176471 C5.57496798,20.7615157 6.30803771,20.5565047 6.91764706,20.1352941 C7.35421526,19.7218325 7.57006915,19.126599 7.5,18.5294118 C7.50848166,18.0776279 7.3515842,17.638315 7.05882353,17.2941176 C6.64651159,16.8598398 6.14747652,16.517129 5.59411765,16.2882353 L5.59411765,16.2882353 Z M14.8411765,19.0941176 C15.2418171,18.4229918 15.4437587,17.6519419 15.4235294,16.8705882 C15.3836584,16.2091179 15.1838195,15.5672111 14.8411765,15 C14.5656762,14.4489196 14.1366763,13.9892769 13.6058824,13.6764706 C13.0679897,13.3715984 12.4594461,13.2133771 11.8411765,13.2176471 C11.174684,13.2029941 10.5164802,13.3675451 9.93529412,13.6941176 C9.3905036,13.9981381 8.94363937,14.4511238 8.64705882,15 C8.33465411,15.6239663 8.17726734,16.3140467 8.18823529,17.0117647 C8.19192135,17.6247312 8.33684964,18.2285991 8.61176471,18.7764706 C8.8810813,19.3215625 9.30446136,19.7756223 9.82941176,20.0823529 C10.3624273,20.4074309 10.970181,20.589757 11.5941176,20.6117647 L13.1117647,22.3764706 L15.2470588,22.3764706 L13.0764706,20.4352941 C13.8073933,20.2160649 14.4342481,19.7396553 14.8411765,19.0941176 Z M13.0764706,18.6529412 C12.7507411,19.0574121 12.2543885,19.2859955 11.7352941,19.2705882 C11.2119454,19.2874926 10.7125709,19.0509468 10.3941176,18.6352941 C10.0210955,18.125651 9.83986798,17.5007284 9.88235294,16.8705882 C9.84138605,16.2406128 10.0224662,15.6161985 10.3941176,15.1058824 C10.7305236,14.6911915 11.2366087,14.4511255 11.7705882,14.4529412 C12.2943028,14.4303675 12.7933391,14.6765588 13.0941176,15.1058824 C13.4417842,15.6261235 13.6091673,16.2460608 13.5705882,16.8705882 C13.6321598,17.5053848 13.4561,18.1404578 13.0764706,18.6529412 L13.0764706,18.6529412 Z" id="Shape" fill="url(#radialGradient-9)"></path>
        </g>
        <g id="10033-icon-service-Images" transform="translate(268.600000, 239.000000)" fill-rule="nonzero">
            <rect id="Rectangle" fill="url(#linearGradient-10)" x="0" y="1.6022461e-15" width="32.4714372" height="21.6476248" rx="0.6"></rect>
            <polygon id="Path" fill="#50E6FF" points="21.6476248 7.66686711 21.6476248 13.962718 16.2357186 17.1377029 16.2357186 10.8238124"></polygon>
            <polygon id="Path" fill="#C3F1FF" points="21.6476248 7.66686711 16.2537583 10.8418521 10.8238124 7.66686711 16.2537583 4.50992183"></polygon>
            <polygon id="Path" fill="#9CEBFF" points="16.2357186 10.8418521 16.2357186 17.1377029 10.8238124 13.962718 10.8238124 7.66686711"></polygon>
            <polygon id="Path" fill="#C3F1FF" points="10.8238124 13.962718 16.2357186 10.8238124 16.2357186 17.1377029"></polygon>
            <polygon id="Path" fill="#9CEBFF" points="21.6476248 13.962718 16.2357186 10.8238124 16.2357186 17.1377029"></polygon>
            <path d="M22.7480457,28.1960313 C19.5369814,27.69092 19.4107035,25.38184 19.4287432,21.6476248 L12.9885749,21.6476248 C12.9885749,25.38184 12.9885749,27.69092 9.72339146,28.1960313 C8.81245027,28.3061156 8.12927142,29.0824552 8.13585117,30 L24.3716176,30 C24.3302719,29.0882785 23.6503899,28.332854 22.7480457,28.1960313 L22.7480457,28.1960313 Z" id="Path" fill="url(#linearGradient-11)"></path>
            <path d="M8.80336741,2.16476248 L3.8424534,2.16476248 C3.18489248,2.16476248 2.65183403,2.69782092 2.65183403,3.35538184 L2.65183403,8.33433554 C2.65183403,8.663116 2.91836326,8.92964522 3.24714372,8.92964522 L3.64401684,8.92964522 C3.9727973,8.92964522 4.23932652,8.663116 4.23932652,8.33433554 L4.23932652,3.73421527 L8.80336741,3.73421527 C9.12508208,3.7244619 9.38078521,3.46076805 9.38063747,3.13890559 L9.38063747,2.76007216 C9.38078521,2.4382097 9.12508208,2.17451585 8.80336741,2.16476248 L8.80336741,2.16476248 Z" id="Path" fill="#FFFFFF"></path>
            <path d="M8.80336741,17.7871317 L4.22128683,17.7871317 L4.22128683,13.2230908 C4.22128683,13.0652049 4.15856688,12.9137855 4.04692466,12.8021433 C3.93528244,12.6905011 3.78386309,12.6277811 3.62597715,12.6277811 L3.24714372,12.6277811 C3.08925777,12.6277811 2.93783843,12.6905011 2.8261962,12.8021433 C2.71455398,12.9137855 2.65183403,13.0652049 2.65183403,13.2230908 L2.65183403,18.2742032 C2.64700187,18.5930891 2.77030531,18.9005829 2.99411564,19.1277811 C3.21792597,19.3549857 3.52353094,19.4828623 3.8424534,19.4828623 L8.80336741,19.4828623 C8.97659516,19.4745759 9.13821826,19.3933421 9.24822515,19.2592712 C9.35823204,19.1252003 9.40633928,18.9508252 9.3806374,18.7793145 L9.3806374,18.3824414 C9.38078521,18.0605789 9.12508208,17.7968851 8.80336741,17.7871317 L8.80336741,17.7871317 Z" id="Path" fill="#FFFFFF"></path>
            <path d="M28.7011425,2.21888154 L23.8123873,2.21888154 C23.4836068,2.21888154 23.2170776,2.48541076 23.2170776,2.81419122 L23.2170776,3.19302465 C23.2018282,3.36005745 23.2577492,3.52577325 23.3710867,3.64941424 C23.4844243,3.77305522 23.6446612,3.84314806 23.8123873,3.8424534 L28.3764281,3.8424534 L28.3764281,8.37041491 C28.3764281,8.69919537 28.6429574,8.96572459 28.9717378,8.96572459 L29.3866506,8.96572459 C29.7154311,8.96572459 29.9819652,8.69919537 29.9819652,8.37041491 L29.9819652,3.4095009 C29.9829146,3.07746142 29.8451704,2.76010737 29.6019751,2.53403846 C29.3587798,2.30796955 29.0322291,2.19372556 28.7011425,2.21888154 Z" id="Path" fill="#FFFFFF"></path>
            <path d="M29.3144919,12.6638605 L28.9356584,12.6638605 C28.606878,12.6638605 28.3403488,12.9303897 28.3403488,13.2591702 L28.3403488,17.8412508 L23.8123873,17.8412508 C23.4836068,17.8412508 23.2170776,18.10778 23.2170776,18.4365604 L23.2170776,18.8334336 C23.2170776,19.162214 23.4836068,19.4287432 23.8123873,19.4287432 L28.7733013,19.4287432 C29.4338433,19.4288168 29.9721015,18.8985923 29.9819765,18.2381239 L29.9819765,13.2591702 C29.9832234,13.0879482 29.9106995,12.9244729 29.7829138,12.8105019 C29.6551281,12.6965308 29.4844555,12.6431011 29.3144919,12.6638605 L29.3144919,12.6638605 Z" id="Path" fill="#FFFFFF"></path>
        </g>
    </g>
</svg>