<?xml version="1.0" encoding="UTF-8"?>
<svg width="300px" height="75px" viewBox="0 0 300 75" version="1.1" xmlns="http://www.w3.org/2000/svg" xmlns:xlink="http://www.w3.org/1999/xlink">
    <g id="hashi-container-4-2-1" stroke="none" stroke-width="1" fill="none" fill-rule="evenodd">
        <g id="Path_699" transform="translate(125.000000, 4.000000)">
            <rect id="Rectangle" fill="#222222" fill-rule="nonzero" x="0" y="0" width="50" height="45.3846154" rx="7.5"></rect>
            <path d="M11.7590909,11.9588462 C12.3613636,11.2326923 13.4363636,11.1419231 14.1590909,11.7319231 L24.3863636,20.2415385 C24.775,20.5819231 25,21.0584615 25,21.5576923 C25,22.0569231 24.775,22.5334615 24.3863636,22.8738462 L14.1590909,31.3834615 C13.4363636,31.9734615 12.3613636,31.8826923 11.7590909,31.1565385 C11.1568182,30.4303846 11.2545455,29.3638462 11.9772727,28.7511538 L20.6318182,21.5576923 L11.9772727,14.3642308 C11.2545455,13.7515385 11.1568182,12.685 11.7590909,11.9588462 Z" id="Path" fill="#FFFFFF" fill-rule="nonzero"></path>
            <path d="M24.4318182,31.7692308 C23.4909091,31.7692308 22.7272727,32.5407692 22.7272727,33.4711538 C22.7272727,34.4015385 23.4909091,35.1730769 24.4318182,35.1730769 L36.9318182,35.1730769 C37.8727273,35.1730769 38.6363636,34.4015385 38.6363636,33.4711538 C38.6363636,32.5407692 37.8727273,31.7692308 36.9318182,31.7692308 L24.4318182,31.7692308 Z" id="Path" fill="#FFFFFF" fill-rule="nonzero"></path>
            <path d="M0,6.24038462 C0,2.79115385 2.79772727,0 6.25,0 L43.75,0 C47.2022727,0 50,2.79115385 50,6.24038462 L50,39.1442308 C50,42.5934615 47.2022727,45.3846154 43.75,45.3846154 L6.25,45.3846154 C2.79772727,45.3846154 0,42.5934615 0,39.1442308 L0,6.24038462 Z M6.25,3.40384615 C4.68181818,3.40384615 3.40909091,4.67461538 3.40909091,6.24038462 L3.40909091,39.1442308 C3.40909091,40.71 4.68181818,41.9807692 6.25,41.9807692 L43.75,41.9807692 C45.3181818,41.9807692 46.5909091,40.71 46.5909091,39.1442308 L46.5909091,6.24038462 C46.5909091,4.67461538 45.3181818,3.40384615 43.75,3.40384615 L6.25,3.40384615 Z" id="Shape" fill="#222222"></path>
        </g>
        <g id="arrow" transform="translate(152.500000, 64.500000) scale(-1, 1) translate(-152.500000, -64.500000) translate(22.500000, 64.000000)" fill="#000000" fill-rule="nonzero">
            <path id="Line" d="M18.5,-9 L18.5,-1 L261.5,-1 L261.5,2 L18.5,2 L18.5,10 L-0.5,0.5 L18.5,-9 Z"></path>
        </g>
    </g>
</svg>